<svg width="18" height="58" viewBox="0 0 18 58" fill="none" xmlns="http://www.w3.org/2000/svg">
<path d="M15.576 9.85882C14.078 9.46282 12.58 9.06782 11.082 8.67182C8.808 8.07082 6.525 7.50182 4.245 6.92382C8.635 5.81882 12.999 4.61682 17.164 2.85282C17.641 2.65082 17.476 1.93282 17.024 1.81782C12.01 0.536824 6.54 -0.381176 1.348 0.156824C0.979002 0.194824 0.976002 0.677824 1.348 0.713824C3.91 0.966824 6.479 1.11082 9.035 1.43182C11.046 1.68382 13.04 2.04982 15.012 2.50082C10.722 4.15482 6.231 5.26882 1.762 6.37282C1.197 6.51182 1.212 7.31782 1.762 7.46482C4.288 8.13982 6.799 8.86482 9.328 9.52782C10.639 9.87182 11.951 10.2148 13.262 10.5588C13.918 10.7308 14.573 10.9028 15.229 11.0738C15.475 11.1378 15.724 11.1948 15.966 11.2728C16.345 11.3958 15.914 11.3458 15.713 11.4048C10.648 12.8878 5.549 14.2728 0.469002 15.7068C-0.184998 15.8918 -0.126998 16.7278 0.469002 16.9358C3.223 17.8968 5.984 18.8408 8.731 19.8218C10.735 20.5378 12.734 21.3528 14.434 22.6048C9.99 23.4568 5.56 24.4228 1.438 26.2968C0.944002 26.5218 1.066 27.3338 1.592 27.4368C5.749 28.2518 9.957 29.1398 13.559 31.3488C9.38 32.6248 5.323 34.1958 1.436 36.1698C1.041 36.3698 1.06 36.9548 1.436 37.1588C3.178 38.1068 5.133 38.7228 7.139 38.7958C7.508 38.8088 7.99 38.7268 8.167 39.1248C8.366 39.5728 8.37 40.0848 8.417 40.5618C8.468 41.0888 8.563 41.6118 8.643 42.1358C8.878 43.6658 9.05 45.2048 9.166 46.7478C9.275 48.2038 9.346 49.6628 9.359 51.1228C9.362 51.4848 9.355 51.8468 9.343 52.2098C8.449 49.4818 7.352 46.7948 5.841 44.3958C5.769 44.2818 5.577 44.3548 5.615 44.4878C6.198 46.5318 6.955 48.5178 7.644 50.5348C8.334 52.5558 8.943 54.6008 9.502 56.6598C9.643 57.1788 10.431 57.1678 10.579 56.6598C11.185 54.5658 11.789 52.4708 12.398 50.3788C12.741 49.2018 13.094 47.9858 13.375 46.7768C13.518 46.1628 13.644 45.5448 13.744 44.9228C13.796 44.6018 13.86 44.2738 13.88 43.9488C13.894 43.7188 13.788 43.4488 13.612 43.7878C12.59 45.7538 11.928 47.9768 11.319 50.0918C11.051 51.0228 10.781 51.9528 10.512 52.8828C10.515 52.3838 10.513 51.8868 10.513 51.3968C10.513 49.8468 10.46 48.2938 10.335 46.7478C10.215 45.2658 10.006 43.7928 9.783 42.3228C9.671 41.5868 9.565 40.8508 9.462 40.1138C9.371 39.4658 9.414 38.6138 9 38.0678C8.844 37.8618 8.596 37.8458 8.353 37.8328C6.511 37.7338 4.722 37.3798 3.054 36.6588C6.916 34.7768 10.959 33.2198 15.136 32.1318C15.548 32.0248 15.788 31.4168 15.41 31.1298C12.079 28.5918 7.979 27.4838 3.891 26.6298C7.798 25.1378 11.959 24.3538 16.074 23.5818C16.561 23.4908 16.701 22.8358 16.363 22.5228C14.431 20.7368 12.01 19.6638 9.537 18.7618C7.293 17.9428 5.032 17.1648 2.773 16.3838C5.105 15.7228 7.438 15.0618 9.77 14.4018C11.261 13.9788 12.753 13.5568 14.244 13.1348C14.953 12.9338 15.689 12.7708 16.382 12.5228C16.823 12.3658 17.245 12.1178 17.413 11.6698C17.843 10.5138 16.42 10.0818 15.576 9.85882Z" fill="black"/>
</svg>
